<svg xmlns="http://www.w3.org/2000/svg" xml:space="preserve" viewBox="0 0 651 233.5" y="0" x="0" id="Layer_1" version="1.1"><style id="style1533" type="text/css">.st0{fill:#ecf3fa}.st1{fill:#40327a}.st3{fill:#fff}.st6{fill:#ce7b8b}.st7{fill:#6469d8}.st10{fill:#e10098}</style><path id="path1535" d="M416 39c129.8 0 235 85.5 235 191H181c0-105.5 105.2-191 235-191z" class="st0"/><path id="path1537" d="M170 138c93.9 0 170 41.2 170 92H0c0-50.8 76.1-92 170-92z" class="st0"/><path id="path1539" d="M396.4 106.1c-.1-2.3-2.2-4.1-4.7-4.1H219.5c-2.5 0-4.4 1.9-4.3 4.1l5.4 109.8c.1 2.3 2.2 4.1 4.7 4.1h172.2c2.5 0 4.4-1.9 4.3-4.1l-5.4-109.8z" class="st1"/><path id="path1541" d="M218.3 171.2l2 31.6.8 17.1h178.5l-6.2-1-175.1-47.7z" fill="#5846a2" fill-opacity=".4"/><path id="path1545" d="M255.4 147.4l2-2.3 14.5 11.4-12.8 11.4-2.4-2.2 10.4-9.1-11.7-9.2z" class="st3"/><path id="path1547" d="M299.1 175.9h-22.9l-.2-2.9h22.9l.2 2.9z" class="st3"/><path id="path1549" d="M215 223c0-3.3 3.4-6 7.6-6h243.8c4.2 0 7.6 2.7 7.6 6s-3.4 6-7.6 6H222.6c-4.2 0-7.6-2.7-7.6-6z" fill="#b9b7f1"/><path id="path1551" d="M444.7 96.8h49.1V43c0-16.4-13.3-29.6-29.6-29.6-15.8 0-30.2 12.4-30.9 28.2l-2 41.1c-.4 7.6 5.7 14.1 13.4 14.1z" fill="#ff95a9"/><path id="path1553" d="M422 89.4c-.4 8.5 6.4 15.6 14.8 15.6H491V45.7c0-18-14.6-32.7-32.7-32.7-8.7 0-18.1 3.4-24 9-5.9 5.6-9.7 13.4-10.1 22.1L422 89.4z" class="st6"/><path id="path1555" d="M425.1 17.3v16c0 1.2.1 2.4.4 3.6h30.1V1.1h-14.4c-8.8 0-16.1 7.2-16.1 16.2z" class="st1"/><path id="path1557" d="M498.4 8.3h-20.7v50.6h30.9V18.5c0-5.6-4.6-10.2-10.2-10.2z" class="st1"/><path id="path1559" d="M429 33.4h32c12.5 0 22.6-10.2 22.6-22.6 0-5.9-4.8-10.8-10.8-10.8S462 4.8 462 10.8c0 .6-.5 1.1-1.1 1.1h-32l.1 21.5z" class="st1"/><path id="path1561" d="M440.4 22.6H457c5.9 0 10.8-4.8 10.8-10.8C467.8 5.9 463 1 457 1h-16.6c-5.9 0-10.8 4.8-10.8 10.8.1 6 4.9 10.8 10.8 10.8z" class="st1"/><path id="path1563" d="M416.4 28.7c0 9 7.3 16.2 16.2 16.2 9 0 17.4-7.3 17.4-16.2s-8.5-16.2-17.4-16.2c-8.9 0-16.2 7.2-16.2 16.2z" class="st1"/><path id="path1565" d="M440.1 24.9h44.8v16.8h-44.8V24.9z" class="st1"/><path id="path1567" d="M449 41.5h34.6V63H449V41.5z" class="st1"/><path id="path1569" d="M462.3 83.1h39.3c3.8 0 7-3.1 7-7V54.9h-51.5v23c0 2.9 2.3 5.2 5.2 5.2z" class="st1"/><path id="path1571" d="M475.3 139.2c10.2 0 18.5-8.3 18.5-18.5V83.1h-37v37.6c0 10.3 8.3 18.5 18.5 18.5z" class="st6"/><path id="path1573" d="M449 71.1h-8V54.9h8.1c4.5 0 8.1 3.6 8.1 8.1-.1 4.4-3.7 8.1-8.2 8.1z" class="st6"/><path id="path1575" d="M437 35.6h20.1v19.3h-16c-2.3 0-4.1-1.8-4.1-4.1V35.6z" class="st1"/><path id="path1577" d="M475.3 139.2c-10.2 0-18.5-8.3-18.5-18.5s8.3-18.5 18.5-18.5 18.5 8.3 18.5 18.5-8.3 18.5-18.5 18.5z" class="st6"/><path id="path1579" d="M567.6 216.7c-1.9-11 5.5-21.4 16.5-23.3 11-1.9 21.4 5.5 23.3 16.5 1.9 11-5.5 21.4-16.5 23.3-10.9 1.9-21.4-5.5-23.3-16.5z" class="st6"/><path id="path1581" d="M496.3 174.7l79.8 55.2 26-30.7-67.7-69.5-38.1 45z" class="st6"/><path id="path1583" d="M484.2 156.6c-3.4-16 6.7-31.7 22.7-35.2 16-3.4 31.7 6.7 35.2 22.7 3.4 16-6.7 31.7-22.7 35.2-16 3.4-31.8-6.8-35.2-22.7z" class="st7"/><path id="path1585" d="M449.9 174.7l-40.5 28.1 59.8 11.7 7.7 1.5-1.3 13.1H345.9c-4.9-4-7.9-10.3-7.4-17.2.4-4.9 2.5-9.3 5.7-12.6l67.5-69.5 38.2 44.9z" fill-rule="evenodd" clip-rule="evenodd" fill="#ce7b8b"/><path id="path1587" d="M449.9 174.6l-66.2 45.9-28.1-33.1 56.1-57.8 38.2 45z" class="st7"/><path id="path1589" d="M496.3 174.7l66.2 45.8 28-33.1-56.2-57.7-38 45z" class="st7"/><path id="path1591" d="M403.4 151.8c-.8-16.3 11.7-30.2 28.1-31.1 16.3-.8 30.2 11.7 31.1 28.1.8 16.3-11.7 30.2-28.1 31.1-16.3.8-30.2-11.7-31.1-28.1z" class="st7"/><path id="path1593" d="M530 229l4.2-86.5c.6-11.8-8.9-21.7-20.7-21.7h-81c-11.8 0-21.3 9.9-20.7 21.7L416 229h114z" fill-rule="evenodd" clip-rule="evenodd" fill="#6469d8"/><path id="path1595" d="M70.1 67.8l-3.2-1.9 35.8-62.1 3.2 1.9-35.8 62.1z" class="st10"/><path id="path1597" d="M66.1 61h71.7v3.7H66.1V61z" class="st10"/><path id="path1599" d="M103.4 83.8L67.6 63.1l1.9-3.2 35.9 20.7-2 3.2zm31.2-54L98.7 9.1l1.9-3.2 35.9 20.7-1.9 3.2z" class="st10"/><path id="path1601" d="M69.4 29.8l-1.9-3.2 35.9-20.7 1.9 3.2-35.9 20.7z" class="st10"/><path id="path1603" d="M133.9 67.8L98.1 5.7l3.2-1.9 35.8 62.1-3.2 1.9zM69 24.1h3.7v41.4H69V24.1zm62.3 0h3.7v41.4h-3.7V24.1z" class="st10"/><path id="path1605" d="M102.8 82.2l-1.6-2.8 31.2-18 1.6 2.8-31.2 18z" class="st10"/><path id="path1607" d="M139.9 66.7c-2.1 3.7-6.9 5-10.7 2.9-3.7-2.1-5-6.9-2.9-10.7 2.1-3.7 6.9-5 10.7-2.9 3.8 2.2 5.1 7 2.9 10.7zm-62.3-36c-2.1 3.7-6.9 5-10.7 2.9-3.7-2.1-5-6.9-2.9-10.7 2.1-3.7 6.9-5 10.7-2.9 3.8 2.2 5 7 2.9 10.7zm-13.5 36C62 63 63.2 58.2 67 56c3.7-2.1 8.5-.9 10.7 2.9 2.1 3.7.9 8.5-2.9 10.7-3.8 2.1-8.6.9-10.7-2.9zm62.3-36c-2.1-3.7-.9-8.5 2.9-10.7 3.7-2.1 8.5-.9 10.7 2.9 2.1 3.7.9 8.5-2.9 10.7-3.7 2.1-8.5.9-10.7-2.9zM102 88.6c-4.3 0-7.8-3.5-7.8-7.8S97.7 73 102 73s7.8 3.5 7.8 7.8-3.5 7.8-7.8 7.8zm0-72c-4.3 0-7.8-3.5-7.8-7.8S97.7 1 102 1s7.8 3.5 7.8 7.8-3.5 7.8-7.8 7.8z" class="st10"/><path id="path1609" d="M103 101.5c.3 0 .5.2.5.5 0 1.7 0 3.4.1 5 0 .3-.2.5-.5.5s-.5-.2-.5-.5c-.1-1.7-.1-3.4-.1-5.1 0-.2.2-.4.5-.4zm1.2 15.1c.3 0 .5.1.6.4.6 3.3 1.3 6.6 2.2 9.8.1.3-.1.5-.3.6-.3.1-.5-.1-.6-.3-.9-3.2-1.7-6.5-2.3-9.9-.1-.3.1-.6.4-.6zm5.4 19.4c.3-.1.5 0 .7.3 1.3 3.1 2.7 6.1 4.4 9 .1.2 0 .5-.2.7-.2.1-.5 0-.7-.2-1.6-2.9-3.1-6-4.4-9.1-.1-.3 0-.6.2-.7zm9.7 17.7c.2-.2.5-.1.7.1 1.9 2.7 4 5.4 6.3 7.8.2.2.2.5 0 .7-.2.2-.5.2-.7 0-2.3-2.5-4.4-5.2-6.3-7.9-.3-.3-.2-.6 0-.7zm13.4 15.1c.2-.2.5-.2.7 0 2.5 2.2 5.1 4.3 7.8 6.3.2.2.3.5.1.7-.2.2-.5.3-.7.1-2.8-2-5.4-4.1-7.9-6.3-.2-.3-.2-.6 0-.8zm16.3 11.7c.1-.2.4-.3.7-.2 2.9 1.6 5.9 3.1 9 4.4.3.1.4.4.3.7s-.4.4-.7.3c-3.1-1.3-6.2-2.8-9.1-4.4-.2-.2-.3-.5-.2-.8zm18.6 7.9c.1-.3.4-.4.6-.3 3.2.9 6.5 1.7 9.8 2.2.3 0 .5.3.4.6 0 .3-.3.5-.6.4-3.4-.6-6.7-1.3-9.9-2.3-.2-.1-.4-.4-.3-.6zm19.9 3.4c0-.3.3-.5.5-.5 1.7.1 3.3.1 5 .1.3 0 .5.2.5.5s-.2.5-.5.5c-1.7 0-3.4 0-5.1-.1-.3 0-.5-.2-.4-.5z" fill-rule="evenodd" clip-rule="evenodd" fill="#757575"/><path d="M238.321 117.198c-.91.304-1.35.85-1.648 1.7-.077.226-.27.477-.487.646l.747.801-2.371-1.66-6.545-4.575s.472 3.07.636 4.198c.115.797.313 1.154.94 1.516l.25.135 1.08.57-.641-.334 2.96 1.617-.02.044-3.186-1.477c.169.58.497 1.694.636 2.186.15.531.318.724.834.912l.95.348.588-.232-.747.497-3.736 4.744c2.482-2.307 4.584-3.127 6.121-3.798 1.962-.85 3.143-1.395 3.914-3.354.55-1.375.978-3.137 1.523-3.818l1.162-1.486s-2.405.637-2.96.82z" id="path914" fill="#fff" stroke-width=".475" fill-opacity="1"/></svg>